<?xml version="1.0" encoding="UTF-8"?>
<svg xmlns="http://www.w3.org/2000/svg" viewBox="0 0 800 600" width="800" height="600">
  <defs>
    <style>
      .track-bg { fill: #111317; }
      .track-line { fill: none; stroke: #2a2e36; stroke-width: 4; stroke-linecap: round; stroke-linejoin: round; }
      .track-line-accent { fill: none; stroke: rgba(0,229,255,0.25); stroke-width: 2; stroke-linecap: round; stroke-dasharray: 6,4; }
    </style>
  </defs>
  <rect class="track-bg" width="800" height="600" rx="8"/>
  <polyline class="track-line" points="150.0,300.0 180.0,260.0 220.0,220.0 280.0,180.0 360.0,160.0 440.0,180.0 520.0,220.0 580.0,280.0 620.0,340.0 640.0,400.0 600.0,440.0 520.0,460.0 440.0,440.0 150.0,300.0"/>
  <polyline class="track-line-accent" points="150.0,300.0 180.0,260.0 220.0,220.0 280.0,180.0 360.0,160.0 440.0,180.0 520.0,220.0 580.0,280.0 620.0,340.0 640.0,400.0 600.0,440.0 520.0,460.0 440.0,440.0 150.0,300.0"/>
  <line x1="354.0" y1="154.0" x2="366.0" y2="166.0" stroke="#ff2d2d" stroke-width="1.5" stroke-dasharray="3,2" opacity="0.6"/>
  <line x1="614.0" y1="334.0" x2="626.0" y2="346.0" stroke="#ff2d2d" stroke-width="1.5" stroke-dasharray="3,2" opacity="0.6"/>
  <line x1="144.0" y1="294.0" x2="156.0" y2="306.0" stroke="#ff2d2d" stroke-width="1.5" stroke-dasharray="3,2" opacity="0.6"/>

  <rect x="146.0" y="296.0" width="8" height="8" fill="#ff2d2d" rx="1"/>
  <text x="400" y="588" text-anchor="middle" fill="#5b616e"
        font-size="10" font-family="monospace">JEDDAH</text>
  <circle cx="168.0" cy="215.0" r="5" fill="none" stroke="#00e5ff" stroke-width="1.5" opacity="0.7"/>
  <text x="168.0" y="207.0" text-anchor="middle" fill="#8a909c" font-size="8" font-family="monospace">1</text>
  <circle cx="186.0" cy="230.0" r="5" fill="none" stroke="#00e5ff" stroke-width="1.5" opacity="0.7"/>
  <text x="186.0" y="222.0" text-anchor="middle" fill="#8a909c" font-size="8" font-family="monospace">2</text>
  <circle cx="204.0" cy="245.0" r="5" fill="none" stroke="#00e5ff" stroke-width="1.5" opacity="0.7"/>
  <text x="204.0" y="237.0" text-anchor="middle" fill="#8a909c" font-size="8" font-family="monospace">3</text>
  <circle cx="222.0" cy="260.0" r="5" fill="none" stroke="#00e5ff" stroke-width="1.5" opacity="0.7"/>
  <text x="222.0" y="252.0" text-anchor="middle" fill="#8a909c" font-size="8" font-family="monospace">4</text>
  <circle cx="240.0" cy="275.0" r="5" fill="none" stroke="#00e5ff" stroke-width="1.5" opacity="0.7"/>
  <text x="240.0" y="267.0" text-anchor="middle" fill="#8a909c" font-size="8" font-family="monospace">5</text>
  <circle cx="258.0" cy="290.0" r="5" fill="none" stroke="#00e5ff" stroke-width="1.5" opacity="0.7"/>
  <text x="258.0" y="282.0" text-anchor="middle" fill="#8a909c" font-size="8" font-family="monospace">6</text>
  <circle cx="276.0" cy="305.0" r="5" fill="none" stroke="#00e5ff" stroke-width="1.5" opacity="0.7"/>
  <text x="276.0" y="297.0" text-anchor="middle" fill="#8a909c" font-size="8" font-family="monospace">7</text>
  <circle cx="294.0" cy="320.0" r="5" fill="none" stroke="#00e5ff" stroke-width="1.5" opacity="0.7"/>
  <text x="294.0" y="312.0" text-anchor="middle" fill="#8a909c" font-size="8" font-family="monospace">8</text>
  <circle cx="312.0" cy="335.0" r="5" fill="none" stroke="#00e5ff" stroke-width="1.5" opacity="0.7"/>
  <text x="312.0" y="327.0" text-anchor="middle" fill="#8a909c" font-size="8" font-family="monospace">9</text>
  <circle cx="330.0" cy="350.0" r="5" fill="none" stroke="#00e5ff" stroke-width="1.5" opacity="0.7"/>
  <text x="330.0" y="342.0" text-anchor="middle" fill="#8a909c" font-size="8" font-family="monospace">10</text>
  <circle cx="348.0" cy="365.0" r="5" fill="none" stroke="#00e5ff" stroke-width="1.5" opacity="0.7"/>
  <text x="348.0" y="357.0" text-anchor="middle" fill="#8a909c" font-size="8" font-family="monospace">11</text>
  <circle cx="366.0" cy="380.0" r="5" fill="none" stroke="#00e5ff" stroke-width="1.5" opacity="0.7"/>
  <text x="366.0" y="372.0" text-anchor="middle" fill="#8a909c" font-size="8" font-family="monospace">12</text>
  <circle cx="384.0" cy="395.0" r="5" fill="none" stroke="#00e5ff" stroke-width="1.5" opacity="0.7"/>
  <text x="384.0" y="387.0" text-anchor="middle" fill="#8a909c" font-size="8" font-family="monospace">13</text>
  <circle cx="402.0" cy="410.0" r="5" fill="none" stroke="#00e5ff" stroke-width="1.5" opacity="0.7"/>
  <text x="402.0" y="402.0" text-anchor="middle" fill="#8a909c" font-size="8" font-family="monospace">14</text>
  <circle cx="420.0" cy="425.0" r="5" fill="none" stroke="#00e5ff" stroke-width="1.5" opacity="0.7"/>
  <text x="420.0" y="417.0" text-anchor="middle" fill="#8a909c" font-size="8" font-family="monospace">15</text>
  <circle cx="438.0" cy="440.0" r="5" fill="none" stroke="#00e5ff" stroke-width="1.5" opacity="0.7"/>
  <text x="438.0" y="432.0" text-anchor="middle" fill="#8a909c" font-size="8" font-family="monospace">16</text>
  <circle cx="456.0" cy="455.0" r="5" fill="none" stroke="#00e5ff" stroke-width="1.5" opacity="0.7"/>
  <text x="456.0" y="447.0" text-anchor="middle" fill="#8a909c" font-size="8" font-family="monospace">17</text>
  <circle cx="474.0" cy="470.0" r="5" fill="none" stroke="#00e5ff" stroke-width="1.5" opacity="0.7"/>
  <text x="474.0" y="462.0" text-anchor="middle" fill="#8a909c" font-size="8" font-family="monospace">18</text>
  <circle cx="492.0" cy="485.0" r="5" fill="none" stroke="#00e5ff" stroke-width="1.5" opacity="0.7"/>
  <text x="492.0" y="477.0" text-anchor="middle" fill="#8a909c" font-size="8" font-family="monospace">19</text>
  <circle cx="510.0" cy="200.0" r="5" fill="none" stroke="#00e5ff" stroke-width="1.5" opacity="0.7"/>
  <text x="510.0" y="192.0" text-anchor="middle" fill="#8a909c" font-size="8" font-family="monospace">20</text>
  <circle cx="528.0" cy="215.0" r="5" fill="none" stroke="#00e5ff" stroke-width="1.5" opacity="0.7"/>
  <text x="528.0" y="207.0" text-anchor="middle" fill="#8a909c" font-size="8" font-family="monospace">21</text>
  <circle cx="546.0" cy="230.0" r="5" fill="none" stroke="#00e5ff" stroke-width="1.5" opacity="0.7"/>
  <text x="546.0" y="222.0" text-anchor="middle" fill="#8a909c" font-size="8" font-family="monospace">22</text>
  <circle cx="564.0" cy="245.0" r="5" fill="none" stroke="#00e5ff" stroke-width="1.5" opacity="0.7"/>
  <text x="564.0" y="237.0" text-anchor="middle" fill="#8a909c" font-size="8" font-family="monospace">23</text>
  <circle cx="582.0" cy="260.0" r="5" fill="none" stroke="#00e5ff" stroke-width="1.5" opacity="0.7"/>
  <text x="582.0" y="252.0" text-anchor="middle" fill="#8a909c" font-size="8" font-family="monospace">24</text>
  <circle cx="600.0" cy="275.0" r="5" fill="none" stroke="#00e5ff" stroke-width="1.5" opacity="0.7"/>
  <text x="600.0" y="267.0" text-anchor="middle" fill="#8a909c" font-size="8" font-family="monospace">25</text>
  <circle cx="618.0" cy="290.0" r="5" fill="none" stroke="#00e5ff" stroke-width="1.5" opacity="0.7"/>
  <text x="618.0" y="282.0" text-anchor="middle" fill="#8a909c" font-size="8" font-family="monospace">26</text>
  <circle cx="636.0" cy="305.0" r="5" fill="none" stroke="#00e5ff" stroke-width="1.5" opacity="0.7"/>
  <text x="636.0" y="297.0" text-anchor="middle" fill="#8a909c" font-size="8" font-family="monospace">27</text>
</svg>