<?xml version="1.0" encoding="UTF-8"?>
<svg xmlns="http://www.w3.org/2000/svg" viewBox="0 0 800 600" width="800" height="600">
  <defs>
    <style>
      .track-bg { fill: #111317; }
      .track-line { fill: none; stroke: #2a2e36; stroke-width: 4; stroke-linecap: round; stroke-linejoin: round; }
      .track-line-accent { fill: none; stroke: rgba(0,229,255,0.25); stroke-width: 2; stroke-linecap: round; stroke-dasharray: 6,4; }
    </style>
  </defs>
  <rect class="track-bg" width="800" height="600" rx="8"/>
  <polyline class="track-line" points="350.0,100.0 390.0,150.0 430.0,220.0 470.0,300.0 450.0,380.0 400.0,420.0 360.0,400.0 330.0,340.0 320.0,260.0 340.0,180.0 360.0,130.0 350.0,100.0"/>
  <polyline class="track-line-accent" points="350.0,100.0 390.0,150.0 430.0,220.0 470.0,300.0 450.0,380.0 400.0,420.0 360.0,400.0 330.0,340.0 320.0,260.0 340.0,180.0 360.0,130.0 350.0,100.0"/>
  <line x1="444.0" y1="374.0" x2="456.0" y2="386.0" stroke="#ff2d2d" stroke-width="1.5" stroke-dasharray="3,2" opacity="0.6"/>
  <line x1="324.0" y1="334.0" x2="336.0" y2="346.0" stroke="#ff2d2d" stroke-width="1.5" stroke-dasharray="3,2" opacity="0.6"/>
  <line x1="344.0" y1="94.0" x2="356.0" y2="106.0" stroke="#ff2d2d" stroke-width="1.5" stroke-dasharray="3,2" opacity="0.6"/>
  <circle cx="390.0" cy="150.0" r="5" fill="none" stroke="#00e5ff" stroke-width="1.5" opacity="0.7"/>
  <text x="390.0" y="142.0" text-anchor="middle" fill="#8a909c" font-size="8" font-family="monospace">1</text>
  <circle cx="430.0" cy="220.0" r="5" fill="none" stroke="#00e5ff" stroke-width="1.5" opacity="0.7"/>
  <text x="430.0" y="212.0" text-anchor="middle" fill="#8a909c" font-size="8" font-family="monospace">2</text>
  <circle cx="470.0" cy="300.0" r="5" fill="none" stroke="#00e5ff" stroke-width="1.5" opacity="0.7"/>
  <text x="470.0" y="292.0" text-anchor="middle" fill="#8a909c" font-size="8" font-family="monospace">3</text>
  <circle cx="450.0" cy="380.0" r="5" fill="none" stroke="#00e5ff" stroke-width="1.5" opacity="0.7"/>
  <text x="450.0" y="372.0" text-anchor="middle" fill="#8a909c" font-size="8" font-family="monospace">4</text>
  <circle cx="400.0" cy="420.0" r="5" fill="none" stroke="#00e5ff" stroke-width="1.5" opacity="0.7"/>
  <text x="400.0" y="412.0" text-anchor="middle" fill="#8a909c" font-size="8" font-family="monospace">5</text>
  <circle cx="360.0" cy="400.0" r="5" fill="none" stroke="#00e5ff" stroke-width="1.5" opacity="0.7"/>
  <text x="360.0" y="392.0" text-anchor="middle" fill="#8a909c" font-size="8" font-family="monospace">6</text>
  <circle cx="330.0" cy="340.0" r="5" fill="none" stroke="#00e5ff" stroke-width="1.5" opacity="0.7"/>
  <text x="330.0" y="332.0" text-anchor="middle" fill="#8a909c" font-size="8" font-family="monospace">7</text>
  <circle cx="320.0" cy="260.0" r="5" fill="none" stroke="#00e5ff" stroke-width="1.5" opacity="0.7"/>
  <text x="320.0" y="252.0" text-anchor="middle" fill="#8a909c" font-size="8" font-family="monospace">8</text>
  <circle cx="330.0" cy="220.0" r="5" fill="none" stroke="#00e5ff" stroke-width="1.5" opacity="0.7"/>
  <text x="330.0" y="212.0" text-anchor="middle" fill="#8a909c" font-size="8" font-family="monospace">9</text>
  <circle cx="340.0" cy="180.0" r="5" fill="none" stroke="#00e5ff" stroke-width="1.5" opacity="0.7"/>
  <text x="340.0" y="172.0" text-anchor="middle" fill="#8a909c" font-size="8" font-family="monospace">10</text>
  <circle cx="355.0" cy="150.0" r="5" fill="none" stroke="#00e5ff" stroke-width="1.5" opacity="0.7"/>
  <text x="355.0" y="142.0" text-anchor="middle" fill="#8a909c" font-size="8" font-family="monospace">11</text>
  <circle cx="358.0" cy="130.0" r="5" fill="none" stroke="#00e5ff" stroke-width="1.5" opacity="0.7"/>
  <text x="358.0" y="122.0" text-anchor="middle" fill="#8a909c" font-size="8" font-family="monospace">12</text>
  <circle cx="355.0" cy="115.0" r="5" fill="none" stroke="#00e5ff" stroke-width="1.5" opacity="0.7"/>
  <text x="355.0" y="107.0" text-anchor="middle" fill="#8a909c" font-size="8" font-family="monospace">13</text>
  <circle cx="353.0" cy="108.0" r="5" fill="none" stroke="#00e5ff" stroke-width="1.5" opacity="0.7"/>
  <text x="353.0" y="100.0" text-anchor="middle" fill="#8a909c" font-size="8" font-family="monospace">14</text>
  <circle cx="352.0" cy="104.0" r="5" fill="none" stroke="#00e5ff" stroke-width="1.5" opacity="0.7"/>
  <text x="352.0" y="96.0" text-anchor="middle" fill="#8a909c" font-size="8" font-family="monospace">15</text>
  <circle cx="351.0" cy="102.0" r="5" fill="none" stroke="#00e5ff" stroke-width="1.5" opacity="0.7"/>
  <text x="351.0" y="94.0" text-anchor="middle" fill="#8a909c" font-size="8" font-family="monospace">16</text>
  <circle cx="350.0" cy="100.0" r="5" fill="none" stroke="#00e5ff" stroke-width="1.5" opacity="0.7"/>
  <text x="350.0" y="92.0" text-anchor="middle" fill="#8a909c" font-size="8" font-family="monospace">17</text>
  <rect x="346.0" y="96.0" width="8" height="8" fill="#ff2d2d" rx="1"/>
  <text x="400" y="588" text-anchor="middle" fill="#5b616e"
        font-size="10" font-family="monospace">MEXICO_CITY</text>
</svg>