<?xml version="1.0" encoding="UTF-8"?>
<svg xmlns="http://www.w3.org/2000/svg" viewBox="0 0 800 600" width="800" height="600">
  <defs>
    <style>
      .track-bg { fill: #0d0d12; }
      .track-line { fill: none; stroke: #3a3e48; stroke-width: 3; stroke-linecap: round; stroke-linejoin: round; }
      .track-line-accent { fill: none; stroke: rgba(59,158,255,0.20); stroke-width: 1.5; stroke-linecap: round; stroke-dasharray: 6,4; }
      .track-edge { fill: none; stroke: #3a3e48; stroke-width: 1; stroke-linecap: round; stroke-linejoin: round; opacity: 0.6; }
    </style>
  </defs>
  <rect class="track-bg" width="800" height="600" rx="8"/>
  <path class="track-edge" d="M 346.9 123.9 C 353.9 130.9 378.5 147.2 396.6 163.7 C 414.8 180.2 439.5 200.1 455.9 222.9 C 472.3 245.7 491.7 274.9 495.0 300.6 C 498.3 326.4 488.5 356.6 475.7 377.4 C 463.0 398.2 437.2 418.8 418.4 425.3 C 399.6 431.7 378.5 427.1 362.9 415.9 C 347.2 404.7 334.2 380.6 324.6 358.0 C 314.9 335.5 299.9 320.0 305.0 280.6 C 310.0 241.2 347.8 147.6 354.8 121.5 C 361.8 95.4 339.9 116.9 346.9 123.9 Z"/>
  <path class="track-edge" d="M 353.1 116.1 C 362.8 122.4 384.9 139.5 403.4 156.3 C 421.9 173.1 447.1 193.2 464.1 217.1 C 481.0 240.9 501.6 271.8 505.0 299.4 C 508.3 327.0 498.2 360.1 484.3 382.6 C 470.4 405.2 442.8 427.8 421.6 434.7 C 400.4 441.7 374.8 436.2 357.1 424.1 C 339.4 412.0 325.8 386.1 315.4 362.0 C 305.1 337.9 290.1 320.0 295.0 279.4 C 300.0 238.8 335.5 145.7 345.2 118.5 C 354.9 91.3 343.4 109.8 353.1 116.1 Z"/>
  <path class="track-line" d="M 350.0 120.0 C 358.3 126.7 381.7 143.3 400.0 160.0 C 418.3 176.7 443.3 196.7 460.0 220.0 C 476.7 243.3 496.7 273.3 500.0 300.0 C 503.3 326.7 493.3 358.3 480.0 380.0 C 466.7 401.7 440.0 423.3 420.0 430.0 C 400.0 436.7 376.7 431.7 360.0 420.0 C 343.3 408.3 330.0 383.3 320.0 360.0 C 310.0 336.7 295.0 320.0 300.0 280.0 C 305.0 240.0 341.7 146.7 350.0 120.0 C 358.3 93.3 341.7 113.3 350.0 120.0 Z"/>
  <path class="track-line-accent" d="M 350.0 120.0 C 358.3 126.7 381.7 143.3 400.0 160.0 C 418.3 176.7 443.3 196.7 460.0 220.0 C 476.7 243.3 496.7 273.3 500.0 300.0 C 503.3 326.7 493.3 358.3 480.0 380.0 C 466.7 401.7 440.0 423.3 420.0 430.0 C 400.0 436.7 376.7 431.7 360.0 420.0 C 343.3 408.3 330.0 383.3 320.0 360.0 C 310.0 336.7 295.0 320.0 300.0 280.0 C 305.0 240.0 341.7 146.7 350.0 120.0 C 358.3 93.3 341.7 113.3 350.0 120.0 Z"/>
  <rect x="345.0" y="115.0" width="10" height="10" fill="#FF1801" rx="1"/>
  <circle cx="400.0" cy="160.0" r="6" fill="none" stroke="#3B9EFF" stroke-width="1.5" opacity="0.85"/>
  <text x="400.0" y="151.0" text-anchor="middle" fill="#9494a8" font-size="9" font-family="monospace">1</text>
  <circle cx="440.0" cy="200.0" r="6" fill="none" stroke="#3B9EFF" stroke-width="1.5" opacity="0.85"/>
  <text x="440.0" y="191.0" text-anchor="middle" fill="#9494a8" font-size="9" font-family="monospace">2</text>
  <circle cx="460.0" cy="220.0" r="6" fill="none" stroke="#3B9EFF" stroke-width="1.5" opacity="0.85"/>
  <text x="460.0" y="211.0" text-anchor="middle" fill="#9494a8" font-size="9" font-family="monospace">3</text>
  <circle cx="500.0" cy="300.0" r="6" fill="none" stroke="#3B9EFF" stroke-width="1.5" opacity="0.85"/>
  <text x="500.0" y="291.0" text-anchor="middle" fill="#9494a8" font-size="9" font-family="monospace">4</text>
  <circle cx="480.0" cy="380.0" r="6" fill="none" stroke="#3B9EFF" stroke-width="1.5" opacity="0.85"/>
  <text x="480.0" y="371.0" text-anchor="middle" fill="#9494a8" font-size="9" font-family="monospace">5</text>
  <circle cx="440.0" cy="420.0" r="6" fill="none" stroke="#3B9EFF" stroke-width="1.5" opacity="0.85"/>
  <text x="440.0" y="411.0" text-anchor="middle" fill="#9494a8" font-size="9" font-family="monospace">6</text>
  <circle cx="380.0" cy="430.0" r="6" fill="none" stroke="#3B9EFF" stroke-width="1.5" opacity="0.85"/>
  <text x="380.0" y="421.0" text-anchor="middle" fill="#9494a8" font-size="9" font-family="monospace">7</text>
  <circle cx="360.0" cy="420.0" r="6" fill="none" stroke="#3B9EFF" stroke-width="1.5" opacity="0.85"/>
  <text x="360.0" y="411.0" text-anchor="middle" fill="#9494a8" font-size="9" font-family="monospace">8</text>
  <circle cx="320.0" cy="360.0" r="6" fill="none" stroke="#3B9EFF" stroke-width="1.5" opacity="0.85"/>
  <text x="320.0" y="351.0" text-anchor="middle" fill="#9494a8" font-size="9" font-family="monospace">9</text>
  <circle cx="300.0" cy="300.0" r="6" fill="none" stroke="#3B9EFF" stroke-width="1.5" opacity="0.85"/>
  <text x="300.0" y="291.0" text-anchor="middle" fill="#9494a8" font-size="9" font-family="monospace">10</text>
  <circle cx="300.0" cy="280.0" r="6" fill="none" stroke="#3B9EFF" stroke-width="1.5" opacity="0.85"/>
  <text x="300.0" y="271.0" text-anchor="middle" fill="#9494a8" font-size="9" font-family="monospace">11</text>
  <circle cx="320.0" cy="200.0" r="6" fill="none" stroke="#3B9EFF" stroke-width="1.5" opacity="0.85"/>
  <text x="320.0" y="191.0" text-anchor="middle" fill="#9494a8" font-size="9" font-family="monospace">12</text>
  <circle cx="340.0" cy="160.0" r="6" fill="none" stroke="#3B9EFF" stroke-width="1.5" opacity="0.85"/>
  <text x="340.0" y="151.0" text-anchor="middle" fill="#9494a8" font-size="9" font-family="monospace">13</text>
  <circle cx="350.0" cy="130.0" r="6" fill="none" stroke="#3B9EFF" stroke-width="1.5" opacity="0.85"/>
  <text x="350.0" y="121.0" text-anchor="middle" fill="#9494a8" font-size="9" font-family="monospace">14</text>
  <text x="400.0" y="588" text-anchor="middle" fill="#5c5c70" font-size="11" font-family="monospace" letter-spacing="2">BARCELONA</text>
</svg>
