<?xml version="1.0" encoding="UTF-8"?>
<svg xmlns="http://www.w3.org/2000/svg" viewBox="0 0 800 600" width="800" height="600">
  <defs>
    <style>
      .track-bg { fill: #0d0d12; }
      .track-line { fill: none; stroke: #3a3e48; stroke-width: 3; stroke-linecap: round; stroke-linejoin: round; }
      .track-line-accent { fill: none; stroke: rgba(59,158,255,0.20); stroke-width: 1.5; stroke-linecap: round; stroke-dasharray: 6,4; }
      .track-edge { fill: none; stroke: #3a3e48; stroke-width: 1; stroke-linecap: round; stroke-linejoin: round; opacity: 0.6; }
    </style>
  </defs>
  <rect class="track-bg" width="800" height="600" rx="8"/>
  <path class="track-edge" d="M 201.6 204.7 C 212.1 203.0 242.0 191.4 261.6 184.7 C 281.2 178.1 303.3 161.9 319.0 164.9 C 334.7 167.9 346.3 186.5 355.7 202.6 C 365.1 218.7 368.6 241.6 375.3 261.6 C 381.9 281.6 385.4 305.5 395.7 322.6 C 406.1 339.7 420.0 353.9 437.4 364.3 C 454.8 374.7 479.2 385.0 500.0 385.0 C 520.8 385.0 541.6 374.7 562.2 364.5 C 582.8 354.2 606.5 340.6 623.5 323.5 C 640.6 306.5 654.2 282.8 664.5 262.2 C 674.7 241.6 685.1 220.9 685.0 200.0 C 684.9 179.1 677.7 154.3 663.9 136.9 C 650.1 119.4 626.0 105.7 602.0 95.4 C 578.0 85.1 547.3 75.0 520.0 75.0 C 492.7 75.0 465.2 85.2 438.2 95.3 C 411.2 105.4 384.7 123.8 358.0 135.4 C 331.3 147.1 304.9 155.3 278.2 165.3 C 251.6 175.3 211.0 188.7 198.2 195.3 C 185.5 201.9 191.0 206.5 201.6 204.7 Z"/>
  <path class="track-edge" d="M 198.4 195.3 C 207.9 190.4 238.0 181.9 258.4 175.3 C 278.8 168.6 303.3 151.4 321.0 155.1 C 338.6 158.8 353.7 180.2 364.3 197.4 C 374.9 214.6 378.1 238.4 384.7 258.4 C 391.4 278.4 394.6 301.2 404.3 317.4 C 413.9 333.6 426.6 346.1 442.6 355.7 C 458.5 365.3 480.8 375.0 500.0 375.0 C 519.2 375.0 538.4 365.3 557.8 355.5 C 577.2 345.8 600.2 332.8 616.5 316.5 C 632.8 300.2 645.8 277.2 655.5 257.8 C 665.3 238.4 674.9 219.1 675.0 200.0 C 675.1 180.9 668.9 159.0 656.1 143.1 C 643.3 127.2 620.7 114.3 598.0 104.6 C 575.3 94.9 546.0 85.0 520.0 85.0 C 494.0 85.0 468.1 94.8 441.8 104.7 C 415.4 114.6 388.7 132.9 362.0 144.6 C 335.3 156.2 308.5 164.7 281.8 174.7 C 255.0 184.7 215.6 201.3 201.8 204.7 C 187.9 208.1 189.0 200.2 198.4 195.3 Z"/>
  <path class="track-line" d="M 200.0 200.0 C 210.0 196.7 240.0 186.7 260.0 180.0 C 280.0 173.3 303.3 156.7 320.0 160.0 C 336.7 163.3 350.0 183.3 360.0 200.0 C 370.0 216.7 373.3 240.0 380.0 260.0 C 386.7 280.0 390.0 303.3 400.0 320.0 C 410.0 336.7 423.3 350.0 440.0 360.0 C 456.7 370.0 480.0 380.0 500.0 380.0 C 520.0 380.0 540.0 370.0 560.0 360.0 C 580.0 350.0 603.3 336.7 620.0 320.0 C 636.7 303.3 650.0 280.0 660.0 260.0 C 670.0 240.0 680.0 220.0 680.0 200.0 C 680.0 180.0 673.3 156.7 660.0 140.0 C 646.7 123.3 623.3 110.0 600.0 100.0 C 576.7 90.0 546.7 80.0 520.0 80.0 C 493.3 80.0 466.7 90.0 440.0 100.0 C 413.3 110.0 386.7 128.3 360.0 140.0 C 333.3 151.7 306.7 160.0 280.0 170.0 C 253.3 180.0 213.3 195.0 200.0 200.0 C 186.7 205.0 190.0 203.3 200.0 200.0 Z"/>
  <path class="track-line-accent" d="M 200.0 200.0 C 210.0 196.7 240.0 186.7 260.0 180.0 C 280.0 173.3 303.3 156.7 320.0 160.0 C 336.7 163.3 350.0 183.3 360.0 200.0 C 370.0 216.7 373.3 240.0 380.0 260.0 C 386.7 280.0 390.0 303.3 400.0 320.0 C 410.0 336.7 423.3 350.0 440.0 360.0 C 456.7 370.0 480.0 380.0 500.0 380.0 C 520.0 380.0 540.0 370.0 560.0 360.0 C 580.0 350.0 603.3 336.7 620.0 320.0 C 636.7 303.3 650.0 280.0 660.0 260.0 C 670.0 240.0 680.0 220.0 680.0 200.0 C 680.0 180.0 673.3 156.7 660.0 140.0 C 646.7 123.3 623.3 110.0 600.0 100.0 C 576.7 90.0 546.7 80.0 520.0 80.0 C 493.3 80.0 466.7 90.0 440.0 100.0 C 413.3 110.0 386.7 128.3 360.0 140.0 C 333.3 151.7 306.7 160.0 280.0 170.0 C 253.3 180.0 213.3 195.0 200.0 200.0 C 186.7 205.0 190.0 203.3 200.0 200.0 Z"/>
  <rect x="195.0" y="195.0" width="10" height="10" fill="#FF1801" rx="1"/>
  <circle cx="320.0" cy="160.0" r="6" fill="none" stroke="#3B9EFF" stroke-width="1.5" opacity="0.85"/>
  <text x="320.0" y="151.0" text-anchor="middle" fill="#9494a8" font-size="9" font-family="monospace">1</text>
  <circle cx="360.0" cy="200.0" r="6" fill="none" stroke="#3B9EFF" stroke-width="1.5" opacity="0.85"/>
  <text x="360.0" y="191.0" text-anchor="middle" fill="#9494a8" font-size="9" font-family="monospace">2</text>
  <circle cx="380.0" cy="260.0" r="6" fill="none" stroke="#3B9EFF" stroke-width="1.5" opacity="0.85"/>
  <text x="380.0" y="251.0" text-anchor="middle" fill="#9494a8" font-size="9" font-family="monospace">3</text>
  <circle cx="400.0" cy="300.0" r="6" fill="none" stroke="#3B9EFF" stroke-width="1.5" opacity="0.85"/>
  <text x="400.0" y="291.0" text-anchor="middle" fill="#9494a8" font-size="9" font-family="monospace">4</text>
  <circle cx="440.0" cy="360.0" r="6" fill="none" stroke="#3B9EFF" stroke-width="1.5" opacity="0.85"/>
  <text x="440.0" y="351.0" text-anchor="middle" fill="#9494a8" font-size="9" font-family="monospace">5</text>
  <circle cx="500.0" cy="380.0" r="6" fill="none" stroke="#3B9EFF" stroke-width="1.5" opacity="0.85"/>
  <text x="500.0" y="371.0" text-anchor="middle" fill="#9494a8" font-size="9" font-family="monospace">6</text>
  <circle cx="560.0" cy="360.0" r="6" fill="none" stroke="#3B9EFF" stroke-width="1.5" opacity="0.85"/>
  <text x="560.0" y="351.0" text-anchor="middle" fill="#9494a8" font-size="9" font-family="monospace">7</text>
  <circle cx="620.0" cy="320.0" r="6" fill="none" stroke="#3B9EFF" stroke-width="1.5" opacity="0.85"/>
  <text x="620.0" y="311.0" text-anchor="middle" fill="#9494a8" font-size="9" font-family="monospace">8</text>
  <circle cx="660.0" cy="260.0" r="6" fill="none" stroke="#3B9EFF" stroke-width="1.5" opacity="0.85"/>
  <text x="660.0" y="251.0" text-anchor="middle" fill="#9494a8" font-size="9" font-family="monospace">9</text>
  <circle cx="680.0" cy="200.0" r="6" fill="none" stroke="#3B9EFF" stroke-width="1.5" opacity="0.85"/>
  <text x="680.0" y="191.0" text-anchor="middle" fill="#9494a8" font-size="9" font-family="monospace">10</text>
  <circle cx="660.0" cy="140.0" r="6" fill="none" stroke="#3B9EFF" stroke-width="1.5" opacity="0.85"/>
  <text x="660.0" y="131.0" text-anchor="middle" fill="#9494a8" font-size="9" font-family="monospace">11</text>
  <circle cx="600.0" cy="100.0" r="6" fill="none" stroke="#3B9EFF" stroke-width="1.5" opacity="0.85"/>
  <text x="600.0" y="91.0" text-anchor="middle" fill="#9494a8" font-size="9" font-family="monospace">12</text>
  <circle cx="440.0" cy="100.0" r="6" fill="none" stroke="#3B9EFF" stroke-width="1.5" opacity="0.85"/>
  <text x="440.0" y="91.0" text-anchor="middle" fill="#9494a8" font-size="9" font-family="monospace">13</text>
  <circle cx="360.0" cy="140.0" r="6" fill="none" stroke="#3B9EFF" stroke-width="1.5" opacity="0.85"/>
  <text x="360.0" y="131.0" text-anchor="middle" fill="#9494a8" font-size="9" font-family="monospace">14</text>
  <circle cx="280.0" cy="170.0" r="6" fill="none" stroke="#3B9EFF" stroke-width="1.5" opacity="0.85"/>
  <text x="280.0" y="161.0" text-anchor="middle" fill="#9494a8" font-size="9" font-family="monospace">15</text>
  <circle cx="220.0" cy="190.0" r="6" fill="none" stroke="#3B9EFF" stroke-width="1.5" opacity="0.85"/>
  <text x="220.0" y="181.0" text-anchor="middle" fill="#9494a8" font-size="9" font-family="monospace">16</text>
  <text x="400.0" y="588" text-anchor="middle" fill="#5c5c70" font-size="11" font-family="monospace" letter-spacing="2">SHANGHAI</text>
</svg>
