<?xml version="1.0" encoding="UTF-8"?>
<svg xmlns="http://www.w3.org/2000/svg" viewBox="0 0 800 600" width="800" height="600">
  <defs>
    <style>
      .track-bg { fill: #0d0d12; }
      .track-line { fill: none; stroke: #3a3e48; stroke-width: 3; stroke-linecap: round; stroke-linejoin: round; }
      .track-line-accent { fill: none; stroke: rgba(59,158,255,0.20); stroke-width: 1.5; stroke-linecap: round; stroke-dasharray: 6,4; }
      .track-edge { fill: none; stroke: #3a3e48; stroke-width: 1; stroke-linecap: round; stroke-linejoin: round; opacity: 0.6; }
    </style>
  </defs>
  <rect class="track-bg" width="800" height="600" rx="8"/>
  <path class="track-edge" d="M 346.2 103.2 C 353.1 113.3 377.8 139.8 396.1 163.1 C 414.4 186.4 436.0 216.3 456.0 243.0 C 476.0 269.7 496.0 296.3 516.0 323.0 C 536.0 349.7 559.4 380.1 575.9 402.9 C 592.4 425.7 614.5 444.6 615.0 460.0 C 615.5 475.4 598.1 492.5 579.2 495.1 C 560.3 497.6 527.8 485.2 501.8 475.3 C 475.7 465.5 445.9 452.3 422.9 435.9 C 400.0 419.6 380.4 400.0 364.1 377.1 C 347.7 354.2 334.6 327.8 324.7 298.4 C 314.9 269.0 300.0 233.4 304.9 200.7 C 309.9 168.0 347.6 118.5 354.5 102.2 C 361.3 86.0 339.2 93.1 346.2 103.2 Z"/>
  <path class="track-edge" d="M 353.8 96.8 C 363.6 106.7 385.6 133.5 403.9 156.9 C 422.3 180.3 444.0 210.3 464.0 237.0 C 484.0 263.7 504.0 290.3 524.0 317.0 C 544.0 343.7 567.2 373.3 584.1 397.1 C 600.9 420.9 625.5 442.0 625.0 460.0 C 624.5 478.0 601.9 500.8 580.8 504.9 C 559.7 509.0 525.5 494.8 498.2 484.7 C 471.0 474.5 440.8 461.0 417.1 444.1 C 393.4 427.1 372.9 406.7 355.9 382.9 C 339.0 359.2 325.4 332.2 315.3 301.6 C 305.1 271.0 290.0 233.2 295.1 199.3 C 300.1 165.3 335.7 114.8 345.5 97.8 C 355.3 80.7 344.1 86.9 353.8 96.8 Z"/>
  <path class="track-line" d="M 350.0 100.0 C 358.3 110.0 381.7 136.7 400.0 160.0 C 418.3 183.3 440.0 213.3 460.0 240.0 C 480.0 266.7 500.0 293.3 520.0 320.0 C 540.0 346.7 563.3 376.7 580.0 400.0 C 596.7 423.3 620.0 443.3 620.0 460.0 C 620.0 476.7 600.0 496.7 580.0 500.0 C 560.0 503.3 526.7 490.0 500.0 480.0 C 473.3 470.0 443.3 456.7 420.0 440.0 C 396.7 423.3 376.7 403.3 360.0 380.0 C 343.3 356.7 330.0 330.0 320.0 300.0 C 310.0 270.0 295.0 233.3 300.0 200.0 C 305.0 166.7 341.7 116.7 350.0 100.0 C 358.3 83.3 341.7 90.0 350.0 100.0 Z"/>
  <path class="track-line-accent" d="M 350.0 100.0 C 358.3 110.0 381.7 136.7 400.0 160.0 C 418.3 183.3 440.0 213.3 460.0 240.0 C 480.0 266.7 500.0 293.3 520.0 320.0 C 540.0 346.7 563.3 376.7 580.0 400.0 C 596.7 423.3 620.0 443.3 620.0 460.0 C 620.0 476.7 600.0 496.7 580.0 500.0 C 560.0 503.3 526.7 490.0 500.0 480.0 C 473.3 470.0 443.3 456.7 420.0 440.0 C 396.7 423.3 376.7 403.3 360.0 380.0 C 343.3 356.7 330.0 330.0 320.0 300.0 C 310.0 270.0 295.0 233.3 300.0 200.0 C 305.0 166.7 341.7 116.7 350.0 100.0 C 358.3 83.3 341.7 90.0 350.0 100.0 Z"/>
  <rect x="345.0" y="95.0" width="10" height="10" fill="#FF1801" rx="1"/>
  <circle cx="400.0" cy="160.0" r="6" fill="none" stroke="#3B9EFF" stroke-width="1.5" opacity="0.85"/>
  <text x="400.0" y="151.0" text-anchor="middle" fill="#9494a8" font-size="9" font-family="monospace">1</text>
  <circle cx="440.0" cy="200.0" r="6" fill="none" stroke="#3B9EFF" stroke-width="1.5" opacity="0.85"/>
  <text x="440.0" y="191.0" text-anchor="middle" fill="#9494a8" font-size="9" font-family="monospace">2</text>
  <circle cx="480.0" cy="260.0" r="6" fill="none" stroke="#3B9EFF" stroke-width="1.5" opacity="0.85"/>
  <text x="480.0" y="251.0" text-anchor="middle" fill="#9494a8" font-size="9" font-family="monospace">3</text>
  <circle cx="540.0" cy="340.0" r="6" fill="none" stroke="#3B9EFF" stroke-width="1.5" opacity="0.85"/>
  <text x="540.0" y="331.0" text-anchor="middle" fill="#9494a8" font-size="9" font-family="monospace">4</text>
  <circle cx="580.0" cy="380.0" r="6" fill="none" stroke="#3B9EFF" stroke-width="1.5" opacity="0.85"/>
  <text x="580.0" y="371.0" text-anchor="middle" fill="#9494a8" font-size="9" font-family="monospace">5</text>
  <circle cx="600.0" cy="420.0" r="6" fill="none" stroke="#3B9EFF" stroke-width="1.5" opacity="0.85"/>
  <text x="600.0" y="411.0" text-anchor="middle" fill="#9494a8" font-size="9" font-family="monospace">6</text>
  <circle cx="620.0" cy="460.0" r="6" fill="none" stroke="#3B9EFF" stroke-width="1.5" opacity="0.85"/>
  <text x="620.0" y="451.0" text-anchor="middle" fill="#9494a8" font-size="9" font-family="monospace">7</text>
  <circle cx="600.0" cy="500.0" r="6" fill="none" stroke="#3B9EFF" stroke-width="1.5" opacity="0.85"/>
  <text x="600.0" y="491.0" text-anchor="middle" fill="#9494a8" font-size="9" font-family="monospace">8</text>
  <circle cx="540.0" cy="480.0" r="6" fill="none" stroke="#3B9EFF" stroke-width="1.5" opacity="0.85"/>
  <text x="540.0" y="471.0" text-anchor="middle" fill="#9494a8" font-size="9" font-family="monospace">9</text>
  <circle cx="460.0" cy="440.0" r="6" fill="none" stroke="#3B9EFF" stroke-width="1.5" opacity="0.85"/>
  <text x="460.0" y="431.0" text-anchor="middle" fill="#9494a8" font-size="9" font-family="monospace">10</text>
  <circle cx="380.0" cy="380.0" r="6" fill="none" stroke="#3B9EFF" stroke-width="1.5" opacity="0.85"/>
  <text x="380.0" y="371.0" text-anchor="middle" fill="#9494a8" font-size="9" font-family="monospace">11</text>
  <circle cx="340.0" cy="300.0" r="6" fill="none" stroke="#3B9EFF" stroke-width="1.5" opacity="0.85"/>
  <text x="340.0" y="291.0" text-anchor="middle" fill="#9494a8" font-size="9" font-family="monospace">12</text>
  <circle cx="320.0" cy="220.0" r="6" fill="none" stroke="#3B9EFF" stroke-width="1.5" opacity="0.85"/>
  <text x="320.0" y="211.0" text-anchor="middle" fill="#9494a8" font-size="9" font-family="monospace">13</text>
  <circle cx="310.0" cy="180.0" r="6" fill="none" stroke="#3B9EFF" stroke-width="1.5" opacity="0.85"/>
  <text x="310.0" y="171.0" text-anchor="middle" fill="#9494a8" font-size="9" font-family="monospace">14</text>
  <circle cx="350.0" cy="100.0" r="6" fill="none" stroke="#3B9EFF" stroke-width="1.5" opacity="0.85"/>
  <text x="350.0" y="91.0" text-anchor="middle" fill="#9494a8" font-size="9" font-family="monospace">15</text>
  <circle cx="350.0" cy="102.0" r="6" fill="none" stroke="#3B9EFF" stroke-width="1.5" opacity="0.85"/>
  <text x="350.0" y="93.0" text-anchor="middle" fill="#9494a8" font-size="9" font-family="monospace">16</text>
  <circle cx="350.0" cy="103.0" r="6" fill="none" stroke="#3B9EFF" stroke-width="1.5" opacity="0.85"/>
  <text x="350.0" y="94.0" text-anchor="middle" fill="#9494a8" font-size="9" font-family="monospace">17</text>
  <circle cx="350.0" cy="104.0" r="6" fill="none" stroke="#3B9EFF" stroke-width="1.5" opacity="0.85"/>
  <text x="350.0" y="95.0" text-anchor="middle" fill="#9494a8" font-size="9" font-family="monospace">18</text>
  <circle cx="350.0" cy="100.0" r="6" fill="none" stroke="#3B9EFF" stroke-width="1.5" opacity="0.85"/>
  <text x="350.0" y="91.0" text-anchor="middle" fill="#9494a8" font-size="9" font-family="monospace">19</text>
  <text x="400.0" y="588" text-anchor="middle" fill="#5c5c70" font-size="11" font-family="monospace" letter-spacing="2">SPA</text>
</svg>
