<svg xmlns="http://www.w3.org/2000/svg" viewBox="0 0 720 520" width="720" height="520">
<rect width="720" height="520" fill="#111318"/>
<path d="M 461.3 237.1 L 415.7 309.0 L 390.5 349.3 L 364.3 390.5 L 336.8 434.3 L 327.5 449.0 L 324.5 452.4 L 321.8 454.7 L 319.5 455.8 L 315.3 456.3 L 311.5 456.1 L 308.7 455.3 L 306.0 453.9 L 296.6 447.9 L 293.6 446.5 L 288.2 445.4 L 283.9 445.4 L 277.7 446.7 L 274.2 448.9 L 247.9 468.4 L 244.2 470.2 L 240.5 471.6 L 235.4 473.3 L 230.6 474.0 L 226.4 474.0 L 221.9 473.8 L 216.8 473.1 L 211.9 471.5 L 206.0 468.6 L 202.9 466.4 L 200.1 464.0 L 197.6 461.7 L 190.9 452.9 L 187.6 446.2 L 185.2 438.6 L 184.6 433.3 L 184.0 427.0 L 184.1 420.3 L 185.1 413.2 L 188.0 402.0 L 191.1 392.9 L 194.4 385.8 L 198.0 380.1 L 243.6 308.1 L 246.4 305.6 L 250.2 303.3 L 257.3 301.6 L 261.8 302.1 L 265.5 303.2 L 269.7 305.6 L 274.5 309.4 L 277.5 312.8 L 281.2 320.1 L 282.5 325.6 L 282.9 334.2 L 282.5 339.3 L 281.3 345.0 L 278.8 350.6 L 274.2 359.4 L 241.1 410.8 L 240.2 414.2 L 240.1 417.3 L 240.9 420.9 L 242.5 423.4 L 244.2 425.5 L 246.8 427.4 L 250.0 428.5 L 252.6 429.0 L 256.8 428.1 L 258.7 427.4 L 308.5 405.0 L 315.4 400.8 L 322.3 395.5 L 329.2 389.0 L 334.0 383.2 L 353.8 352.3 L 356.0 347.7 L 356.9 344.5 L 356.1 339.4 L 353.5 334.9 L 349.6 331.3 L 340.6 326.0 L 335.7 322.0 L 333.0 319.0 L 330.3 315.1 L 328.8 312.4 L 316.3 282.9 L 302.2 249.7 L 301.1 244.0 L 301.1 238.2 L 301.7 233.7 L 302.6 229.4 L 305.3 224.3 L 307.5 220.9 L 312.1 215.9 L 316.6 212.4 L 475.0 131.7 L 480.6 128.6 L 483.5 125.5 L 484.9 122.6 L 485.2 119.0 L 484.1 115.0 L 482.3 111.9 L 479.6 109.3 L 475.7 106.3 L 469.3 103.6 L 465.4 102.6 L 460.0 101.9 L 455.4 101.7 L 450.7 102.0 L 445.6 103.3 L 438.5 106.7 L 433.7 109.5 L 426.9 115.4 L 420.2 120.2 L 415.6 122.2 L 408.4 122.8 L 404.1 121.8 L 399.0 119.2 L 394.9 115.8 L 392.4 111.9 L 390.4 107.4 L 389.7 102.5 L 389.5 100.2 L 390.9 93.7 L 393.4 89.1 L 397.3 85.3 L 435.1 54.5 L 438.8 51.3 L 443.5 48.6 L 447.8 47.1 L 453.8 46.2 L 459.6 46.0 L 465.0 47.1 L 469.4 49.0 L 478.3 54.6 L 488.2 60.9 L 496.8 66.9 L 502.4 70.1 L 521.2 81.9 L 525.7 85.1 L 528.6 88.1 L 531.2 91.5 L 533.3 95.5 L 535.0 100.9 L 536.0 105.9 L 536.0 113.0 L 535.0 119.5 L 529.8 129.7 L 461.3 237.1 L 461.3 237.1 Z" fill="none" stroke="#8a93a6" stroke-width="4" stroke-linejoin="round" stroke-linecap="round"/>
<rect x="455.3" y="231.1" width="12" height="12" fill="#FF1801" stroke="#fff" stroke-width="1"/>
<g transform="translate(457.0,244.0) rotate(122)"><path d="M 10 0 L -4 -6 L -4 6 Z" fill="#FFD21E"/></g>
<circle cx="302.2" cy="451.5" r="7" fill="none" stroke="#3B9EFF" stroke-width="2"/>
<text x="302.2" y="440.5" text-anchor="middle" fill="#e8ecf4" font-size="12" font-family="monospace" font-weight="bold">1</text>
<text x="302.2" y="473.5" text-anchor="middle" fill="#9aa3b5" font-size="9" font-family="monospace">151°</text>
<circle cx="200.1" cy="464.0" r="7" fill="none" stroke="#3B9EFF" stroke-width="2"/>
<text x="200.1" y="453.0" text-anchor="middle" fill="#e8ecf4" font-size="12" font-family="monospace" font-weight="bold">2</text>
<text x="200.1" y="486.0" text-anchor="middle" fill="#9aa3b5" font-size="9" font-family="monospace">141°</text>
<circle cx="274.5" cy="309.4" r="7" fill="none" stroke="#3B9EFF" stroke-width="2"/>
<text x="274.5" y="298.4" text-anchor="middle" fill="#e8ecf4" font-size="12" font-family="monospace" font-weight="bold">3</text>
<text x="274.5" y="331.4" text-anchor="middle" fill="#9aa3b5" font-size="9" font-family="monospace">171°</text>
<circle cx="242.9" cy="424.0" r="7" fill="none" stroke="#3B9EFF" stroke-width="2"/>
<text x="242.9" y="413.0" text-anchor="middle" fill="#e8ecf4" font-size="12" font-family="monospace" font-weight="bold">4</text>
<text x="242.9" y="446.0" text-anchor="middle" fill="#9aa3b5" font-size="9" font-family="monospace">147°</text>
<circle cx="321.1" cy="396.4" r="7" fill="none" stroke="#3B9EFF" stroke-width="2"/>
<text x="321.1" y="385.4" text-anchor="middle" fill="#e8ecf4" font-size="12" font-family="monospace" font-weight="bold">5</text>
<text x="321.1" y="418.4" text-anchor="middle" fill="#9aa3b5" font-size="9" font-family="monospace">33°</text>
<circle cx="349.0" cy="330.9" r="7" fill="none" stroke="#3B9EFF" stroke-width="2"/>
<text x="349.0" y="319.9" text-anchor="middle" fill="#e8ecf4" font-size="12" font-family="monospace" font-weight="bold">6</text>
<text x="349.0" y="352.9" text-anchor="middle" fill="#9aa3b5" font-size="9" font-family="monospace">129°</text>
<circle cx="302.4" cy="230.1" r="7" fill="none" stroke="#3B9EFF" stroke-width="2"/>
<text x="302.4" y="219.1" text-anchor="middle" fill="#e8ecf4" font-size="12" font-family="monospace" font-weight="bold">7</text>
<text x="302.4" y="252.1" text-anchor="middle" fill="#9aa3b5" font-size="9" font-family="monospace">86°</text>
<circle cx="433.1" cy="110.0" r="7" fill="none" stroke="#3B9EFF" stroke-width="2"/>
<text x="433.1" y="99.0" text-anchor="middle" fill="#e8ecf4" font-size="12" font-family="monospace" font-weight="bold">8</text>
<text x="433.1" y="132.0" text-anchor="middle" fill="#9aa3b5" font-size="9" font-family="monospace">369°</text>
<circle cx="454.5" cy="46.1" r="7" fill="none" stroke="#3B9EFF" stroke-width="2"/>
<text x="454.5" y="35.1" text-anchor="middle" fill="#e8ecf4" font-size="12" font-family="monospace" font-weight="bold">9</text>
<text x="454.5" y="68.1" text-anchor="middle" fill="#9aa3b5" font-size="9" font-family="monospace">72°</text>
<circle cx="536.0" cy="105.9" r="7" fill="none" stroke="#3B9EFF" stroke-width="2"/>
<text x="536.0" y="94.9" text-anchor="middle" fill="#e8ecf4" font-size="12" font-family="monospace" font-weight="bold">10</text>
<text x="536.0" y="127.9" text-anchor="middle" fill="#9aa3b5" font-size="9" font-family="monospace">88°</text>
<text x="12" y="20" fill="#e8ecf4" font-size="14" font-family="monospace">barcelona · 官方10簇 / 4652m · ■=frac0(geojson起点) ▶=行驶向</text>
</svg>